<?xml version="1.0" standalone="no"?>
<!DOCTYPE svg PUBLIC "-//W3C//DTD SVG 20010904//EN"
 "http://www.w3.org/TR/2001/REC-SVG-20010904/DTD/svg10.dtd">
<svg version="1.0" xmlns="http://www.w3.org/2000/svg"
 width="700.000000pt" height="700.000000pt" viewBox="0 0 700.000000 700.000000"
 preserveAspectRatio="xMidYMid meet">
<metadata>
Created by potrace 1.14, written by Peter Selinger 2001-2017
</metadata>
<g transform="translate(0.000000,700.000000) scale(0.100000,-0.100000)"
fill="#000000" stroke="none">
<path d="M466 5848 c-172 -30 -325 -178 -367 -354 -8 -36 -11 -471 -11 -1609
0 -858 2 -1573 6 -1590 32 -165 159 -306 321 -357 l70 -22 1935 -1 1935 0 5
-225 c5 -217 6 -227 31 -281 49 -104 142 -173 270 -200 72 -15 2237 -19 2242
-4 6 15 0 195 -8 235 -46 256 -232 459 -482 529 -98 27 -248 27 -346 0 -178
-50 -336 -179 -415 -339 -23 -47 -47 -104 -52 -128 l-11 -42 -427 0 c-334 1
-436 4 -466 15 -70 25 -70 24 -70 224 -1 99 1 188 4 198 5 17 28 18 400 19
217 0 412 3 432 7 135 24 263 120 326 242 57 113 54 16 54 1719 0 1387 -2
1569 -16 1622 -39 150 -141 261 -297 325 l-54 22 -2480 2 c-1364 0 -2502 -3
-2529 -7z m5776 -4253 l-3 -135 -185 0 c-145 0 -184 3 -184 13 0 23 60 110
104 150 62 58 152 96 251 105 19 1 20 -4 17 -133z"/>
<path d="M1798 1508 c-93 -54 -86 -183 12 -232 20 -10 267 -13 1160 -12 1067
1 1138 2 1163 19 85 56 83 173 -5 227 -32 20 -53 20 -1163 20 l-1130 0 -37
-22z"/>
</g>
</svg>
